<svg width="19" height="20" viewBox="0 0 19 20" xmlns="http://www.w3.org/2000/svg">
<path d="M13.8529 11.885C13.6171 11.7671 12.4544 11.197 12.2377 11.1191C12.0211 11.0402 11.8635 11.0013 11.706 11.2369C11.5485 11.4716 11.0951 12.0028 10.9567 12.1596C10.8192 12.3163 10.6808 12.3353 10.445 12.2175C9.74824 11.9414 9.10511 11.5465 8.54446 11.0507C8.02739 10.5749 7.58409 10.0254 7.22905 9.42011C7.09159 9.18446 7.21473 9.05713 7.3331 8.94026C7.43906 8.83478 7.56984 8.66565 7.68725 8.52787C7.7845 8.40892 7.86421 8.27678 7.92399 8.13543C7.95544 8.07047 7.97008 7.99872 7.96658 7.9267C7.96308 7.85468 7.94155 7.78467 7.90394 7.72304C7.84475 7.60521 7.37224 6.44691 7.17559 5.97561C6.98372 5.51761 6.78899 5.57937 6.64294 5.57177C6.50548 5.56512 6.34797 5.56322 6.19046 5.56322C6.07065 5.56654 5.95282 5.59451 5.8444 5.64537C5.73597 5.69623 5.63929 5.76887 5.56044 5.85873C5.29318 6.11066 5.08156 6.41525 4.93907 6.75308C4.79658 7.0909 4.72634 7.45457 4.73282 7.82091C4.80947 8.70863 5.14489 9.55474 5.6979 10.2553C6.71159 11.7681 8.10309 12.9925 9.73578 13.8082C10.1762 13.9965 10.6261 14.1621 11.0837 14.3042C11.566 14.45 12.076 14.4815 12.5728 14.3964C12.9018 14.33 13.2135 14.1964 13.488 14.0041C13.7626 13.8118 13.9941 13.5648 14.1679 13.2789C14.323 12.9273 14.3708 12.538 14.3054 12.1596C14.2471 12.0607 14.0896 12.0028 13.8529 11.885ZM16.2317 3.25801C14.6089 1.64299 12.4517 0.670033 10.1619 0.520276C7.87207 0.370519 5.60559 1.05417 3.78443 2.44395C1.96326 3.83372 0.711506 5.83492 0.262218 8.07497C-0.18707 10.315 0.196722 12.6413 1.34214 14.6206L0 19.4999L5.01537 18.1915C6.40253 18.9433 7.95681 19.3373 9.53627 19.3374H9.54009C11.4112 19.3365 13.24 18.7835 14.7955 17.7484C16.351 16.7133 17.5633 15.2425 18.2794 13.5218C18.9955 11.8011 19.1832 9.90769 18.8187 8.08087C18.4542 6.25405 17.554 4.57575 16.2317 3.258V3.25801ZM13.7183 16.5505C12.466 17.3318 11.018 17.7464 9.54009 17.7468H9.53627C8.12817 17.7467 6.74602 17.3696 5.53467 16.655L5.24734 16.4858L2.27095 17.2631L3.06516 14.3745L2.87902 14.078C2.05287 12.7666 1.63594 11.2407 1.68096 9.69344C1.72597 8.14614 2.23091 6.64687 3.13191 5.38521C4.03291 4.12356 5.28952 3.15619 6.74283 2.60542C8.19614 2.05465 9.78089 1.94523 11.2967 2.29098C12.8125 2.63673 14.1912 3.42213 15.2586 4.54787C16.326 5.6736 17.034 7.08912 17.2932 8.61541C17.5524 10.1417 17.3511 11.7102 16.7148 13.1227C16.0785 14.5351 15.0357 15.728 13.7183 16.5505Z" fill="currentColor"/>
</svg>
