<svg width="33" height="32" viewBox="0 0 33 32" fill="none" xmlns="http://www.w3.org/2000/svg">
<g clip-path="url(#clip0_192_3469)">
<path d="M24.9998 28C26.8408 28 28.3332 26.5076 28.3332 24.6666C28.3332 22.8257 26.8408 21.3333 24.9998 21.3333C23.1589 21.3333 21.6665 22.8257 21.6665 24.6666C21.6665 26.5076 23.1589 28 24.9998 28Z" stroke="white" stroke-width="3" stroke-linecap="round" stroke-linejoin="round"/>
<path d="M7.66659 28C9.50753 28 10.9999 26.5076 10.9999 24.6666C10.9999 22.8257 9.50753 21.3333 7.66659 21.3333C5.82564 21.3333 4.33325 22.8257 4.33325 24.6666C4.33325 26.5076 5.82564 28 7.66659 28Z" stroke="white" stroke-width="3" stroke-linecap="round" stroke-linejoin="round"/>
<path d="M21.6665 10.6667H26.9998L30.9998 14.6667V21.3334H21.6665V10.6667Z" stroke="white" stroke-width="3" stroke-linecap="round" stroke-linejoin="round"/>
<path d="M21.6665 4H1.6665V21.3333H21.6665V4Z" stroke="white" stroke-width="3" stroke-linecap="round" stroke-linejoin="round"/>
</g>
<defs>
<clipPath id="clip0_192_3469">
<rect width="32" height="32" fill="white" transform="translate(0.333252)"/>
</clipPath>
</defs>
</svg>
