<svg width="32" height="32" viewBox="0 0 32 32" fill="none" xmlns="http://www.w3.org/2000/svg">
<path d="M3.99998 0H20.9929L29.9999 8.97203V30C29.9999 31.105 29.104 32 28 32H3.99998C2.89595 32 2 31.105 2 30V1.99998C2 0.89502 2.89605 0 3.99998 0Z" fill="#E2574C"/>
<path d="M29.971 8.99953H23C21.896 8.99953 21 8.10357 21 6.99954V0.0195312L29.971 8.99953Z" fill="#B53629"/>
<path d="M22.498 15.1627C22.833 15.1627 22.997 14.8707 22.997 14.5877C22.997 14.2947 22.826 14.0117 22.498 14.0117H20.59C20.217 14.0117 20.009 14.3207 20.009 14.6617V19.3507C20.009 19.7687 20.247 20.0007 20.569 20.0007C20.889 20.0007 21.1281 19.7687 21.1281 19.3507V18.0637H22.2821C22.6401 18.0637 22.8191 17.7707 22.8191 17.4797C22.8191 17.1948 22.6401 16.9117 22.2821 16.9117H21.1281V15.1627H22.498ZM16.049 14.0117H14.653C14.274 14.0117 14.0049 14.2717 14.0049 14.6577V19.3547C14.0049 19.8337 14.3919 19.9837 14.6689 19.9837H16.1339C17.8679 19.9837 19.0129 18.8428 19.0129 17.0817C19.012 15.2197 17.934 14.0117 16.049 14.0117ZM16.1161 18.8258H15.265V15.1698H16.032C17.1931 15.1698 17.698 15.9488 17.698 17.0237C17.698 18.0298 17.202 18.8258 16.1161 18.8258ZM11.002 14.0117H9.61904C9.22802 14.0117 9.01001 14.2697 9.01001 14.6617V19.3507C9.01001 19.7687 9.25999 20.0007 9.59596 20.0007C9.93193 20.0007 10.1819 19.7687 10.1819 19.3507V17.9817H11.0489C12.1189 17.9817 13.0019 17.2236 13.0019 16.0047C13.002 14.8118 12.15 14.0117 11.002 14.0117ZM10.9791 16.8818H10.182V15.1127H10.9791C11.4711 15.1127 11.7841 15.4967 11.7841 15.9977C11.783 16.4978 11.4711 16.8818 10.9791 16.8818Z" fill="white"/>
</svg>
