<svg width="24" height="24" viewBox="0 0 24 24" fill="none" xmlns="http://www.w3.org/2000/svg">
<path d="M2.99999 0H15.7447L22.5 6.72902V22.5C22.5 23.3287 21.828 24 21 24H2.99999C2.17196 24 1.5 23.3287 1.5 22.5V1.49999C1.5 0.671265 2.17204 0 2.99999 0Z" fill="#307141"/>
<path d="M22.4782 6.75062H17.25C16.422 6.75062 15.75 6.07866 15.75 5.25064V0.015625L22.4782 6.75062Z" fill="#619B79"/>
<path d="M7.10596 14.1497L8.02881 12.7061V12.6467L7.19824 11.3877C7.17407 11.3503 7.151 11.3141 7.12903 11.2789C7.10706 11.2416 7.08618 11.2053 7.06641 11.1702C7.03345 11.1108 7.00269 11.0482 6.97412 10.9823C6.94775 10.9164 6.93457 10.8604 6.93457 10.8142C6.93457 10.7549 6.95105 10.6945 6.98401 10.6329C7.01917 10.5714 7.07959 10.5154 7.16528 10.4648C7.26416 10.4121 7.35425 10.3857 7.43555 10.3857C7.56079 10.3857 7.66406 10.4363 7.74536 10.5374C7.82886 10.6362 7.90576 10.7439 7.97607 10.8604L8.58911 11.8689H8.68799L9.30103 10.8604C9.37354 10.7439 9.45044 10.6362 9.53174 10.5374C9.61304 10.4363 9.71631 10.3857 9.84155 10.3857C9.8811 10.3857 9.92285 10.3934 9.9668 10.4088C10.0129 10.4242 10.0613 10.4451 10.1118 10.4714C10.2041 10.522 10.2678 10.5769 10.303 10.6362C10.3381 10.6934 10.3557 10.7505 10.3557 10.8076C10.3557 10.856 10.3414 10.9131 10.3129 10.979C10.2843 11.0449 10.2524 11.1086 10.2173 11.1702C10.1777 11.2427 10.1316 11.3152 10.0789 11.3877L9.25488 12.6467V12.7061L10.1711 14.1497C10.2173 14.2222 10.2568 14.2947 10.2898 14.3672C10.325 14.4375 10.3425 14.5078 10.3425 14.5781C10.3425 14.6375 10.326 14.6968 10.2931 14.7561C10.2623 14.8132 10.2041 14.8682 10.1184 14.9209C10.0195 14.9736 9.92944 15 9.84814 15C9.73389 15 9.6394 14.9583 9.5647 14.8748C9.48999 14.7913 9.41968 14.699 9.35376 14.5979L8.68799 13.5168H8.58911L7.92334 14.5979C7.85742 14.699 7.78711 14.7913 7.7124 14.8748C7.6377 14.9583 7.54541 15 7.43555 15C7.35205 15 7.26416 14.9736 7.17188 14.9209C7.08179 14.8682 7.01917 14.8132 6.98401 14.7561C6.95105 14.6968 6.93457 14.6375 6.93457 14.5781C6.93457 14.5078 6.95105 14.4375 6.98401 14.3672C7.01917 14.2947 7.05981 14.2222 7.10596 14.1497Z" fill="white"/>
<path d="M11.3838 14.5122V11.1438C11.3838 11.0076 11.3948 10.8823 11.4167 10.7681C11.4387 10.6516 11.4848 10.5593 11.5552 10.4912C11.6277 10.4209 11.7375 10.3857 11.8847 10.3857C12.0429 10.3857 12.1583 10.4198 12.2308 10.4879C12.3055 10.5538 12.3528 10.6439 12.3725 10.7582C12.3945 10.8724 12.4055 11.001 12.4055 11.1438V14.031H13.0515C13.1833 14.031 13.3042 14.042 13.414 14.064C13.5261 14.0859 13.6151 14.131 13.681 14.1991C13.7491 14.2672 13.7832 14.3716 13.7832 14.5122C13.7832 14.655 13.7491 14.7616 13.681 14.8319C13.6151 14.9 13.5272 14.9451 13.4173 14.967C13.3075 14.989 13.1855 15 13.0515 15H12.1155C11.8804 15 11.6991 14.9736 11.5716 14.9209C11.4464 14.8682 11.3838 14.7319 11.3838 14.5122Z" fill="white"/>
<path d="M15.5693 11.5459C15.5715 11.6382 15.5979 11.7217 15.6484 11.7964C15.7011 11.8689 15.7703 11.9381 15.856 12.004C15.9264 12.059 16.0241 12.1238 16.1494 12.1985C16.2746 12.2732 16.3834 12.338 16.4757 12.3929C16.5877 12.4611 16.6976 12.5369 16.8053 12.6204C16.9129 12.7017 17.0096 12.7939 17.0953 12.8972C17.181 13.0005 17.2502 13.1169 17.3029 13.2466C17.3557 13.3762 17.3842 13.5234 17.3886 13.6882V13.7146C17.3886 13.8904 17.3667 14.0475 17.3227 14.1859C17.2348 14.4474 17.092 14.6418 16.8942 14.7693C16.7932 14.8352 16.6921 14.8857 16.591 14.9209C16.4834 14.9583 16.3746 14.9846 16.2647 15C16.1571 15.0154 16.0549 15.0242 15.9582 15.0264H15.9253C15.7429 15.0264 15.5792 15.0077 15.4342 14.9703C15.2935 14.933 15.1727 14.8835 15.0716 14.822C14.9705 14.7583 14.887 14.6858 14.8211 14.6045C14.753 14.5232 14.6992 14.4386 14.6596 14.3507C14.6201 14.265 14.5915 14.1793 14.5739 14.0936C14.5564 14.0079 14.5476 13.9277 14.5476 13.853C14.5476 13.7036 14.5926 13.5916 14.6827 13.5168C14.775 13.4421 14.8859 13.4048 15.0156 13.4048C15.1408 13.4048 15.2562 13.4432 15.3617 13.5201C15.4693 13.5948 15.5254 13.7036 15.5297 13.8464C15.5341 14.0112 15.5715 14.1244 15.6418 14.1859C15.7121 14.2452 15.8132 14.2749 15.945 14.2749C16.0879 14.2705 16.1988 14.2343 16.2779 14.1661C16.3592 14.098 16.3999 13.9761 16.3999 13.8003C16.3999 13.6487 16.3548 13.5146 16.2647 13.3982C16.1768 13.2817 16.0648 13.1752 15.9285 13.0785C15.7923 12.9796 15.6506 12.884 15.5034 12.7917C15.3496 12.6929 15.2046 12.5896 15.0683 12.4819C14.9321 12.3721 14.8211 12.2479 14.7354 12.1095C14.6497 11.9711 14.6047 11.8096 14.6003 11.625V11.5723C14.6025 11.3372 14.6333 11.1416 14.6926 10.9856C14.7541 10.8296 14.8442 10.7054 14.9629 10.6132C15.0793 10.5209 15.2232 10.4561 15.3946 10.4187C15.566 10.3792 15.7627 10.3594 15.9846 10.3594H16.0703C16.268 10.3594 16.4394 10.3813 16.5844 10.4253C16.7251 10.4692 16.8415 10.5253 16.9338 10.5934C17.0283 10.6615 17.103 10.7384 17.1579 10.8241C17.2107 10.9076 17.2502 10.9922 17.2766 11.0779C17.3029 11.1614 17.3194 11.2394 17.326 11.3119C17.3326 11.3844 17.3359 11.4426 17.3359 11.4866C17.3359 11.6162 17.2887 11.7217 17.1942 11.803C17.1019 11.8821 16.9887 11.9216 16.8547 11.9216C16.7536 11.9216 16.6547 11.8843 16.5581 11.8096C16.4614 11.7349 16.413 11.6536 16.413 11.5657C16.413 11.3855 16.3801 11.2603 16.3142 11.1899C16.2504 11.1196 16.156 11.0845 16.0307 11.0845C15.8857 11.0845 15.7725 11.1108 15.6912 11.1636C15.6099 11.2163 15.5693 11.3438 15.5693 11.5459Z" fill="white"/>
</svg>
