<?xml version="1.0" encoding="UTF-8"?>
<!DOCTYPE svg PUBLIC "-//W3C//DTD SVG 1.1//EN" "http://www.w3.org/Graphics/SVG/1.1/DTD/svg11.dtd">
<!-- Creator: CorelDRAW -->
<svg xmlns="http://www.w3.org/2000/svg" xml:space="preserve" width="34.6286mm" height="7.9586mm" version="1.1" style="shape-rendering:geometricPrecision; text-rendering:geometricPrecision; image-rendering:optimizeQuality; fill-rule:evenodd; clip-rule:evenodd"
viewBox="0 0 3462.86 795.86"
 xmlns:xlink="http://www.w3.org/1999/xlink"
 xmlns:xodm="http://www.corel.com/coreldraw/odm/2003">
 <defs>
  <style type="text/css">
   <![CDATA[
    .fil6 {fill:#939A9E}
    .fil5 {fill:#3B4753}
    .fil4 {fill:white;fill-rule:nonzero}
    .fil2 {fill:#EDEDED;fill-rule:nonzero}
    .fil3 {fill:#C7C7C8;fill-rule:nonzero}
    .fil1 {fill:#E52E25;fill-rule:nonzero}
    .fil0 {fill:#363789;fill-rule:nonzero}
   ]]>
  </style>
 </defs>
 <g id="Слой_x0020_1">
  <metadata id="CorelCorpID_0Corel-Layer"/>
  <g id="_105553176090720">
   <path class="fil0" d="M233.13 787.39l224.65 0 224.65 0 112.33 -194.55 112.32 -194.55 -673.95 389.1zm-112.33 -583.66l0 0 -112.33 194.55 112.33 194.56 112.33 194.55 0 -778.21 -112.33 194.55z"/>
   <polygon class="fil1" points="682.43,9.17 457.78,9.18 233.13,9.18 907.08,398.29 794.76,203.73 "/>
   <polygon class="fil2" points="233.13,787.39 434.93,358.7 233.13,9.18 "/>
   <polygon class="fil3" points="233.13,787.39 907.08,398.29 434.93,358.7 "/>
   <polygon class="fil4" points="434.92,358.7 907.08,398.29 233.13,9.17 "/>
   <path class="fil5" d="M1275.18 107.29l0 244.85 -56.66 0 0 -100.39 -111.24 0 0 100.39 -56.66 0 0 -244.85 56.66 0 0 96.55 111.24 0 0 -96.55 56.66 0zm284.37 0l0 0 0 244.85 -56.31 0 0 -198.68 -110.53 0 0 198.68 -56.32 0 0 -244.85 223.16 0zm284.02 0l0 0 0 244.85 -56.31 0 0 -198.68 -110.53 0 0 198.68 -56.32 0 0 -244.85 223.16 0zm-686.96 329.73l0 0c21.69,0 40.51,3.62 56.49,10.85 15.97,7.23 28.27,17.49 36.9,30.78 8.62,13.29 12.94,29.03 12.94,47.21 0,17.97 -4.32,33.65 -12.94,47.05 -8.63,13.41 -20.93,23.67 -36.9,30.78 -15.98,7.11 -34.8,10.67 -56.49,10.67l-49.33 0 0 67.51 -56.66 0 0 -244.85 105.99 0zm-3.15 131.17l0 0c17.02,0 29.96,-3.67 38.83,-11.02 8.85,-7.34 13.28,-17.78 13.28,-31.31 0,-13.75 -4.43,-24.3 -13.28,-31.65 -8.87,-7.35 -21.81,-11.02 -38.83,-11.02l-46.18 0 0 85 46.18 0zm371.47 -131.17l0 0 -104.24 193.78c-10.02,18.66 -22.09,32.76 -36.2,42.32 -14.11,9.57 -29.44,14.35 -46,14.35 -12.82,0 -26.11,-2.8 -39.87,-8.4l13.64 -43.03c9.8,3.04 17.95,4.55 24.49,4.55 6.99,0 13.29,-1.69 18.88,-5.07 5.6,-3.38 10.73,-8.68 15.4,-15.91l2.09 -2.8 -96.53 -179.79 60.5 0 65.07 131.52 67.15 -131.52 55.62 0zm139.91 249.04l0 0c-24.95,0 -47.51,-5.41 -67.68,-16.26 -20.18,-10.84 -36.03,-25.88 -47.58,-45.12 -11.54,-19.23 -17.31,-40.99 -17.31,-65.23 0,-24.26 5.77,-46 17.31,-65.24 11.55,-19.24 27.4,-34.28 47.58,-45.12 20.17,-10.84 42.84,-16.27 68.03,-16.27 21.22,0 40.4,3.74 57.54,11.2 17.14,7.46 31.54,18.19 43.2,32.18l-36.38 33.58c-16.56,-19.12 -37.08,-28.69 -61.56,-28.69 -15.16,0 -28.69,3.33 -40.58,9.97 -11.89,6.65 -21.16,15.92 -27.81,27.81 -6.64,11.9 -9.96,25.42 -9.96,40.58 0,15.15 3.32,28.68 9.96,40.57 6.65,11.89 15.92,21.16 27.81,27.81 11.89,6.65 25.42,9.97 40.58,9.97 24.48,0 45,-9.68 61.56,-29.03l36.38 33.58c-11.66,14.22 -26.12,25.06 -43.38,32.53 -17.25,7.46 -36.49,11.18 -57.71,11.18zm360.98 -4.19l0 0 -0.36 -146.56 -72.05 120.67 -25.18 0 -72.06 -117.87 0 143.76 -53.17 0 0 -244.85 46.87 0 91.65 152.15 90.24 -152.15 46.87 0 0.35 244.85 -53.16 0zm230.85 4.19l0 0c-25.42,0 -48.33,-5.47 -68.73,-16.44 -20.4,-10.95 -36.38,-26.05 -47.92,-45.29 -11.55,-19.24 -17.32,-40.87 -17.32,-64.88 0,-24.03 5.77,-45.65 17.32,-64.89 11.54,-19.23 27.52,-34.34 47.92,-45.3 20.4,-10.96 43.31,-16.44 68.73,-16.44 25.42,0 48.27,5.48 68.55,16.44 20.3,10.96 36.27,26.07 47.93,45.3 11.66,19.24 17.48,40.86 17.48,64.89 0,24.01 -5.82,45.64 -17.48,64.88 -11.66,19.24 -27.63,34.34 -47.93,45.29 -20.28,10.97 -43.13,16.44 -68.55,16.44zm0 -48.26l0 0c14.46,0 27.52,-3.32 39.18,-9.97 11.66,-6.65 20.8,-15.92 27.45,-27.81 6.65,-11.89 9.97,-25.42 9.97,-40.57 0,-15.16 -3.32,-28.68 -9.97,-40.58 -6.65,-11.89 -15.79,-21.16 -27.45,-27.81 -11.66,-6.64 -24.72,-9.97 -39.18,-9.97 -14.46,0 -27.51,3.33 -39.18,9.97 -11.66,6.65 -20.81,15.92 -27.45,27.81 -6.65,11.9 -9.97,25.42 -9.97,40.58 0,15.15 3.32,28.68 9.97,40.57 6.64,11.89 15.79,21.16 27.45,27.81 11.67,6.65 24.72,9.97 39.18,9.97zm423.24 -2.1l0 0 0 96.89 -52.47 0 0 -50.72 -172.79 0 0 50.72 -52.46 0 0.34 -96.89 9.79 0c14.7,-0.47 25.07,-11.19 31.14,-32.18 6.06,-20.99 9.79,-50.95 11.19,-89.89l2.8 -76.61 188.18 0 0 198.68 34.28 0zm-175.25 -116.83l0 0c-1.16,29.15 -3.61,53.58 -7.34,73.28 -3.73,19.71 -9.44,34.22 -17.14,43.55l109.49 0 0 -152.51 -83.96 0 -1.05 35.68zm434.43 -81.85l0 0 -104.23 193.78c-10.03,18.66 -22.09,32.76 -36.2,42.32 -14.11,9.57 -29.44,14.35 -46,14.35 -12.82,0 -26.11,-2.8 -39.87,-8.4l13.63 -43.03c9.8,3.04 17.96,4.55 24.49,4.55 7,0 13.29,-1.69 18.89,-5.07 5.6,-3.38 10.73,-8.68 15.39,-15.91l2.1 -2.8 -96.54 -179.79 60.51 0 65.06 131.52 67.16 -131.52 55.61 0zm241.36 0l0 0 -188.18 0 -3.5 99.34c-1.4,34.05 -4.78,59.06 -10.15,75.03 -5.36,15.97 -14.8,23.96 -28.33,23.96 -3.73,0 -7.1,-0.47 -10.14,-1.4l-3.5 47.92c10.96,2.57 20.29,3.85 27.98,3.85 18.66,0 33.17,-5.77 43.55,-17.31 10.38,-11.55 17.79,-28.1 22.21,-49.67 4.43,-21.58 7.23,-49.73 8.39,-84.48l1.76 -51.07 83.94 0 0 198.68 55.97 0 0 -244.85zm179.78 80.45l0 0c29.86,0 52.77,6.65 68.74,19.94 15.97,13.29 23.96,33 23.96,59.11 0,27.75 -8.8,48.92 -26.41,63.49 -17.6,14.57 -42.38,21.86 -74.33,21.86l-110.53 0 0 -244.85 56.31 0 0 80.45 62.26 0zm-11.19 122.43l0 0c14.69,0 26.18,-3.62 34.46,-10.85 8.28,-7.22 12.41,-17.72 12.41,-31.48 0,-25.41 -15.62,-38.12 -46.87,-38.12l-51.07 0 0 80.45 51.07 0z"/>
   <path class="fil6" d="M2080.38 111.3l0 92.27 -21.22 0 0 -74.87 -41.66 0 0 74.87 -21.22 0 0 -92.27 84.1 0zm-54.31 232.7l0 0c-7.29,0 -14.35,-0.99 -21.16,-2.96 -6.81,-1.98 -12.28,-4.55 -16.41,-7.71l7.25 -16.09c3.96,2.9 8.66,5.23 14.1,6.99 5.45,1.76 10.9,2.63 16.35,2.63 6.07,0 10.55,-0.9 13.44,-2.69 2.91,-1.81 4.36,-4.2 4.36,-7.19 0,-2.2 -0.86,-4.02 -2.57,-5.47 -1.72,-1.45 -3.92,-2.62 -6.6,-3.49 -2.67,-0.88 -6.3,-1.85 -10.87,-2.9 -7.03,-1.68 -12.79,-3.34 -17.27,-5.02 -4.48,-1.66 -8.32,-4.34 -11.53,-8.03 -3.21,-3.69 -4.82,-8.62 -4.82,-14.77 0,-5.36 1.46,-10.21 4.36,-14.56 2.9,-4.35 7.27,-7.81 13.12,-10.35 5.84,-2.55 12.98,-3.83 21.42,-3.83 5.88,0 11.63,0.71 17.26,2.12 5.63,1.4 10.54,3.43 14.77,6.06l-6.6 16.21c-8.52,-4.83 -17.05,-7.24 -25.57,-7.24 -5.97,0 -10.39,0.95 -13.24,2.89 -2.86,1.94 -4.29,4.48 -4.29,7.65 0,3.16 1.65,5.51 4.95,7.05 3.29,1.54 8.32,3.06 15.08,4.55 7.04,1.67 12.8,3.34 17.28,5.01 4.48,1.67 8.32,4.3 11.53,7.91 3.21,3.6 4.81,8.48 4.81,14.63 0,5.27 -1.47,10.08 -4.42,14.43 -2.94,4.35 -7.36,7.8 -13.25,10.34 -5.88,2.56 -13.04,3.83 -21.48,3.83zm75.14 -76.71l0 0 0 24.38 42.71 0 0 17.14 -42.71 0 0 33.61 -21.36 0 0 -92.27 69.74 0 0 17.14 -48.38 0zm102.82 -17.14l0 0c8.17,0 15.26,1.36 21.29,4.09 6.02,2.72 10.65,6.58 13.9,11.6 3.25,5.01 4.87,10.93 4.87,17.79 0,6.76 -1.62,12.67 -4.87,17.73 -3.25,5.05 -7.88,8.92 -13.9,11.6 -6.03,2.68 -13.12,4.02 -21.29,4.02l-18.59 0 0 25.44 -21.36 0 0 -92.27 39.95 0zm-1.19 49.43l0 0c6.41,0 11.3,-1.39 14.63,-4.16 3.35,-2.76 5.01,-6.7 5.01,-11.79 0,-5.18 -1.66,-9.16 -5.01,-11.93 -3.33,-2.77 -8.22,-4.15 -14.63,-4.15l-17.4 0 0 32.03 17.4 0zm-59.59 -188.28l0 0c8.18,0 15.28,1.36 21.3,4.09 6.01,2.72 10.65,6.59 13.91,11.59 3.25,5.01 4.87,10.94 4.87,17.8 0,6.76 -1.62,12.67 -4.87,17.73 -3.26,5.05 -7.9,8.91 -13.91,11.6 -6.02,2.68 -13.12,4.02 -21.3,4.02l-18.58 0 0 25.44 -21.35 0 0 -92.27 39.93 0zm-1.18 49.43l0 0c6.42,0 11.29,-1.39 14.64,-4.15 3.33,-2.77 5,-6.71 5,-11.8 0,-5.18 -1.67,-9.16 -5,-11.93 -3.35,-2.77 -8.22,-4.15 -14.64,-4.15l-17.4 0 0 32.03 17.4 0zm100.71 44.42l0 0c-9.57,0 -18.21,-2.06 -25.9,-6.19 -7.69,-4.14 -13.71,-9.83 -18.06,-17.07 -4.35,-7.25 -6.52,-15.41 -6.52,-24.45 0,-9.06 2.17,-17.21 6.52,-24.46 4.35,-7.25 10.37,-12.94 18.06,-17.07 7.69,-4.13 16.33,-6.19 25.9,-6.19 9.58,0 18.2,2.06 25.84,6.19 7.64,4.13 13.66,9.82 18.06,17.07 4.39,7.25 6.59,15.4 6.59,24.46 0,9.04 -2.2,17.2 -6.59,24.45 -4.4,7.24 -10.42,12.93 -18.06,17.07 -7.64,4.13 -16.26,6.19 -25.84,6.19zm0 -18.19l0 0c5.45,0 10.37,-1.25 14.77,-3.76 4.39,-2.5 7.84,-5.99 10.34,-10.47 2.51,-4.49 3.76,-9.58 3.76,-15.29 0,-5.72 -1.25,-10.82 -3.76,-15.3 -2.5,-4.48 -5.95,-7.97 -10.34,-10.48 -4.4,-2.5 -9.32,-3.75 -14.77,-3.75 -5.45,0 -10.37,1.25 -14.77,3.75 -4.38,2.51 -7.83,6 -10.34,10.48 -2.5,4.48 -3.76,9.58 -3.76,15.3 0,5.71 1.26,10.8 3.76,15.29 2.51,4.48 5.96,7.97 10.34,10.47 4.4,2.51 9.32,3.76 14.77,3.76zm66.96 -75.66l0 0 21.22 0 0 60.1 44.03 -60.1 20.04 0 0 92.27 -21.09 0 0 -59.97 -44.03 59.97 -20.17 0 0 -92.27zm160.69 44.15l0 0c5.36,1.85 9.56,4.73 12.59,8.64 3.03,3.91 4.54,8.46 4.54,13.64 0,5.63 -1.84,10.51 -5.53,14.63 -3.69,4.14 -8.68,7.29 -14.97,9.49 -6.27,2.2 -13.16,3.3 -20.63,3.3 -6.32,0 -12.62,-0.79 -18.91,-2.37 -6.28,-1.58 -12.24,-4 -17.86,-7.25l6.59 -15.3c4.04,2.47 8.5,4.34 13.38,5.61 4.87,1.27 9.65,1.91 14.31,1.91 6.32,0 11.57,-1.15 15.74,-3.43 4.18,-2.28 6.27,-5.49 6.27,-9.62 0,-3.43 -1.43,-6.02 -4.29,-7.78 -2.85,-1.75 -6.74,-2.64 -11.67,-2.64l-22.53 0 0 -16.07 20.96 0c4.3,0 7.66,-0.88 10.08,-2.64 2.41,-1.76 3.62,-4.17 3.62,-7.25 0,-3.6 -1.73,-6.42 -5.2,-8.44 -3.48,-2.02 -7.93,-3.03 -13.38,-3.03 -4.05,0 -8.22,0.55 -12.52,1.65 -4.31,1.1 -8.4,2.74 -12.26,4.94l-6.46 -16.61c9.75,-5 20.3,-7.51 31.64,-7.51 7.2,0 13.83,1.05 19.9,3.16 6.06,2.11 10.89,5.19 14.5,9.23 3.6,4.05 5.4,8.74 5.4,14.11 0,4.39 -1.18,8.3 -3.55,11.73 -2.38,3.42 -5.63,6.06 -9.76,7.9zm97.94 0l0 0c5.62,1.67 9.93,4.4 12.91,8.18 2.99,3.78 4.49,8.43 4.49,13.97 0,8.18 -3.1,14.55 -9.29,19.11 -6.21,4.58 -15.05,6.86 -26.57,6.86l-45.48 0 0 -92.27 42.98 0c10.72,0 19.07,2.06 25.04,6.19 5.98,4.13 8.97,10.02 8.97,17.66 0,4.58 -1.15,8.6 -3.43,12.06 -2.29,3.48 -5.5,6.22 -9.62,8.24zm-42.71 -5.92l0 0 19.9 0c4.66,0 8.17,-0.95 10.55,-2.84 2.37,-1.89 3.56,-4.68 3.56,-8.37 0,-3.6 -1.21,-6.37 -3.63,-8.31 -2.42,-1.93 -5.91,-2.9 -10.48,-2.9l-19.9 0 0 22.42zm23.46 38.22l0 0c10.02,0 15.03,-3.95 15.03,-11.86 0,-7.65 -5.01,-11.47 -15.03,-11.47l-23.46 0 0 23.33 23.46 0zm97.55 17.4l0 0c-9.58,0 -18.21,-2.06 -25.91,-6.19 -7.68,-4.14 -13.7,-9.83 -18.05,-17.07 -4.35,-7.25 -6.53,-15.41 -6.53,-24.45 0,-9.06 2.18,-17.21 6.53,-24.46 4.35,-7.25 10.37,-12.94 18.05,-17.07 7.7,-4.13 16.33,-6.19 25.91,-6.19 9.57,0 18.19,2.06 25.84,6.19 7.64,4.13 13.66,9.82 18.05,17.07 4.4,7.25 6.6,15.4 6.6,24.46 0,9.04 -2.2,17.2 -6.6,24.45 -4.39,7.24 -10.41,12.93 -18.05,17.07 -7.65,4.13 -16.27,6.19 -25.84,6.19zm0 -18.19l0 0c5.45,0 10.37,-1.25 14.76,-3.76 4.4,-2.5 7.84,-5.99 10.35,-10.47 2.5,-4.49 3.76,-9.58 3.76,-15.29 0,-5.72 -1.26,-10.82 -3.76,-15.3 -2.51,-4.48 -5.95,-7.97 -10.35,-10.48 -4.39,-2.5 -9.31,-3.75 -14.76,-3.75 -5.45,0 -10.37,1.25 -14.77,3.75 -4.39,2.51 -7.84,6 -10.35,10.48 -2.5,4.48 -3.75,9.58 -3.75,15.3 0,5.71 1.25,10.8 3.75,15.29 2.51,4.48 5.96,7.97 10.35,10.47 4.4,2.51 9.32,3.76 14.77,3.76zm159.49 -0.79l0 0 0 36.52 -19.77 0 0 -19.12 -65.12 0 0 19.12 -19.77 0 0.13 -36.52 3.7 0c5.53,-0.18 9.44,-4.22 11.73,-12.13 2.28,-7.91 3.69,-19.2 4.21,-33.88l1.06 -28.86 70.92 0 0 74.87 12.91 0zm-66.04 -44.03l0 0c-0.43,10.98 -1.36,20.2 -2.77,27.62 -1.4,7.42 -3.55,12.89 -6.45,16.41l41.26 0 0 -57.47 -31.64 0 -0.4 13.44zm124.05 63.01l0 0c-9.41,0 -17.91,-2.04 -25.51,-6.13 -7.6,-4.08 -13.57,-9.76 -17.93,-17 -4.35,-7.25 -6.52,-15.45 -6.52,-24.58 0,-9.15 2.17,-17.34 6.52,-24.59 4.36,-7.25 10.33,-12.92 17.93,-17 7.6,-4.09 16.15,-6.13 25.64,-6.13 8,0 15.23,1.4 21.68,4.21 6.46,2.81 11.89,6.86 16.28,12.13l-13.71 12.65c-6.23,-7.2 -13.97,-10.8 -23.2,-10.8 -5.71,0 -10.8,1.25 -15.29,3.75 -4.48,2.51 -7.98,6 -10.48,10.48 -2.51,4.48 -3.76,9.58 -3.76,15.3 0,5.71 1.25,10.8 3.76,15.29 2.5,4.48 6,7.97 10.48,10.47 4.49,2.51 9.58,3.76 15.29,3.76 9.23,0 16.97,-3.64 23.2,-10.94l13.71 12.65c-4.39,5.36 -9.84,9.45 -16.35,12.26 -6.5,2.81 -13.75,4.22 -21.74,4.22zm121.66 -76.45l0 0 -29.52 0 0 74.87 -21.09 0 0 -74.87 -29.4 0 0 -17.4 80.01 0 0 17.4zm77.39 26.75l0 0c5.62,1.67 9.93,4.4 12.91,8.18 2.99,3.78 4.49,8.43 4.49,13.97 0,8.18 -3.1,14.55 -9.3,19.11 -6.2,4.58 -15.04,6.86 -26.56,6.86l-45.48 0 0 -92.27 42.98 0c10.72,0 19.07,2.06 25.04,6.19 5.98,4.13 8.97,10.02 8.97,17.66 0,4.58 -1.14,8.6 -3.43,12.06 -2.29,3.48 -5.49,6.22 -9.62,8.24zm-42.71 -5.92l0 0 19.9 0c4.66,0 8.17,-0.95 10.55,-2.84 2.37,-1.89 3.56,-4.68 3.56,-8.37 0,-3.6 -1.21,-6.37 -3.63,-8.31 -2.42,-1.93 -5.91,-2.9 -10.48,-2.9l-19.9 0 0 22.42zm23.46 38.22l0 0c10.02,0 15.03,-3.95 15.03,-11.86 0,-7.65 -5.01,-11.47 -15.03,-11.47l-23.46 0 0 23.33 23.46 0zm97.55 17.4l0 0c-9.58,0 -18.21,-2.06 -25.9,-6.19 -7.69,-4.14 -13.71,-9.83 -18.06,-17.07 -4.35,-7.25 -6.53,-15.41 -6.53,-24.45 0,-9.06 2.18,-17.21 6.53,-24.46 4.35,-7.25 10.37,-12.94 18.06,-17.07 7.69,-4.13 16.32,-6.19 25.9,-6.19 9.57,0 18.19,2.06 25.84,6.19 7.64,4.13 13.65,9.82 18.05,17.07 4.4,7.25 6.6,15.4 6.6,24.46 0,9.04 -2.2,17.2 -6.6,24.45 -4.4,7.24 -10.41,12.93 -18.05,17.07 -7.65,4.13 -16.27,6.19 -25.84,6.19zm0 -18.19l0 0c5.45,0 10.36,-1.25 14.76,-3.76 4.4,-2.5 7.84,-5.99 10.35,-10.47 2.5,-4.49 3.76,-9.58 3.76,-15.29 0,-5.72 -1.26,-10.82 -3.76,-15.3 -2.51,-4.48 -5.95,-7.97 -10.35,-10.48 -4.4,-2.5 -9.31,-3.75 -14.76,-3.75 -5.45,0 -10.37,1.25 -14.77,3.75 -4.39,2.51 -7.84,6 -10.35,10.48 -2.5,4.48 -3.75,9.58 -3.75,15.3 0,5.71 1.25,10.8 3.75,15.29 2.51,4.48 5.96,7.97 10.35,10.47 4.4,2.51 9.32,3.76 14.77,3.76zm-759.14 155.46l0 0 -0.14 -55.23 -27.15 45.48 -9.49 0 -27.16 -44.43 0 54.18 -20.03 0 0 -92.27 17.66 0 34.53 57.34 34.02 -57.34 17.66 0 0.13 92.27 -20.03 0zm86.99 1.58l0 0c-9.58,0 -18.21,-2.06 -25.9,-6.19 -7.69,-4.14 -13.71,-9.82 -18.06,-17.07 -4.35,-7.25 -6.52,-15.4 -6.52,-24.45 0,-9.06 2.17,-17.21 6.52,-24.46 4.35,-7.25 10.37,-12.94 18.06,-17.07 7.69,-4.13 16.32,-6.2 25.9,-6.2 9.58,0 18.19,2.07 25.84,6.2 7.64,4.13 13.66,9.82 18.05,17.07 4.4,7.25 6.6,15.4 6.6,24.46 0,9.05 -2.2,17.2 -6.6,24.45 -4.39,7.25 -10.41,12.93 -18.05,17.07 -7.65,4.13 -16.26,6.19 -25.84,6.19zm0 -18.19l0 0c5.45,0 10.37,-1.25 14.76,-3.76 4.4,-2.5 7.84,-6 10.35,-10.48 2.5,-4.48 3.76,-9.57 3.76,-15.28 0,-5.72 -1.26,-10.82 -3.76,-15.3 -2.51,-4.48 -5.95,-7.97 -10.35,-10.47 -4.39,-2.51 -9.31,-3.76 -14.76,-3.76 -5.45,0 -10.37,1.25 -14.77,3.76 -4.39,2.5 -7.84,5.99 -10.34,10.47 -2.51,4.48 -3.76,9.58 -3.76,15.3 0,5.71 1.25,10.8 3.76,15.28 2.5,4.48 5.95,7.98 10.34,10.48 4.4,2.51 9.32,3.76 14.77,3.76zm159.5 -0.79l0 0 0 36.52 -19.77 0 0 -19.12 -65.12 0 0 19.12 -19.77 0 0.12 -36.52 3.7 0c5.54,-0.18 9.45,-4.22 11.73,-12.13 2.28,-7.91 3.69,-19.2 4.22,-33.87l1.05 -28.87 70.92 0 0 74.87 12.92 0zm-66.04 -44.03l0 0c-0.44,10.99 -1.37,20.19 -2.77,27.62 -1.41,7.42 -3.56,12.9 -6.46,16.41l41.26 0 0 -57.47 -31.64 0 -0.39 13.44zm163.72 -30.84l0 0 -39.29 73.03c-3.77,7.02 -8.32,12.34 -13.64,15.94 -5.32,3.61 -11.09,5.41 -17.33,5.41 -4.83,0 -9.85,-1.06 -15.03,-3.16l5.15 -16.22c3.69,1.14 6.76,1.71 9.22,1.71 2.63,0 5.01,-0.63 7.12,-1.9 2.11,-1.28 4.04,-3.28 5.8,-6.01l0.79 -1.05 -36.39 -67.75 22.81 0 24.52 49.56 25.31 -49.56 20.96 0zm90.96 0l0 0 -70.93 0 -1.31 37.44c-0.53,12.82 -1.8,22.25 -3.83,28.27 -2.02,6.01 -5.58,9.03 -10.67,9.03 -1.41,0 -2.68,-0.18 -3.82,-0.53l-1.32 18.06c4.12,0.97 7.64,1.45 10.54,1.45 7.04,0 12.5,-2.17 16.41,-6.52 3.91,-4.36 6.71,-10.59 8.37,-18.73 1.68,-8.12 2.73,-18.73 3.17,-31.83l0.66 -19.24 31.64 0 0 74.87 21.09 0 0 -92.27zm94.51 75.14l0 0 0 17.13 -71.45 0 0 -92.27 69.73 0 0 17.14 -48.51 0 0 20.03 42.85 0 0 16.61 -42.85 0 0 21.36 50.23 0zm17.26 -75.14l0 0 21.23 0 0 60.1 44.03 -60.1 20.03 0 0 92.27 -21.09 0 0 -59.98 -44.02 59.98 -20.18 0 0 -92.27zm42.58 -5.94l0 0c-16.87,0 -25.4,-6.71 -25.57,-20.17l14.63 0c0.18,6.42 3.82,9.63 10.94,9.63 3.52,0 6.2,-0.82 8.05,-2.44 1.84,-1.63 2.81,-4.02 2.89,-7.19l14.64 0c-0.09,6.6 -2.24,11.61 -6.46,15.03 -4.23,3.43 -10.59,5.14 -19.12,5.14z"/>
  </g>
 </g>
</svg>
