<?xml version="1.0" encoding="UTF-8"?>
<!DOCTYPE svg PUBLIC "-//W3C//DTD SVG 1.1//EN" "http://www.w3.org/Graphics/SVG/1.1/DTD/svg11.dtd">
<!-- Creator: CorelDRAW -->
<svg xmlns="http://www.w3.org/2000/svg" xml:space="preserve" width="34.6286mm" height="7.9586mm" version="1.1" style="shape-rendering:geometricPrecision; text-rendering:geometricPrecision; image-rendering:optimizeQuality; fill-rule:evenodd; clip-rule:evenodd"
viewBox="0 0 3462.86 795.86"
 xmlns:xlink="http://www.w3.org/1999/xlink"
 xmlns:xodm="http://www.corel.com/coreldraw/odm/2003">
 <defs>
  <style type="text/css">
   <![CDATA[
    .fil0 {fill:white}
   ]]>
  </style>
 </defs>
 <g id="Слой_x0020_1">
  <metadata id="CorelCorpID_0Corel-Layer"/>
  <g id="_105553181820416">
   <g>
    <path class="fil0" d="M1273.47 112.12l0 246.16 -56.97 0 0 -100.92 -111.83 0 0 100.92 -56.96 0 0 -246.16 56.96 0 0 97.07 111.83 0 0 -97.07 56.97 0zm285.89 0l0 0 0 246.16 -56.61 0 0 -199.74 -111.13 0 0 199.74 -56.61 0 0 -246.16 224.35 0zm285.53 0l0 0 0 246.16 -56.61 0 0 -199.74 -111.12 0 0 199.74 -56.62 0 0 -246.16 224.35 0zm-690.63 331.49l0 0c21.81,0 40.73,3.65 56.79,10.91 16.06,7.27 28.43,17.58 37.1,30.95 8.67,13.36 13.01,29.18 13.01,47.46 0,18.06 -4.34,33.83 -13.01,47.3 -8.67,13.49 -21.04,23.8 -37.1,30.95 -16.06,7.15 -34.98,10.73 -56.79,10.73l-49.59 0 0 67.86 -56.96 0 0 -246.16 106.55 0zm-3.16 131.88l0 0c17.11,0 30.12,-3.69 39.03,-11.08 8.91,-7.38 13.36,-17.88 13.36,-31.48 0,-13.83 -4.45,-24.43 -13.36,-31.81 -8.91,-7.39 -21.92,-11.09 -39.03,-11.09l-46.43 0 0 85.46 46.43 0zm373.45 -131.88l0 0 -104.79 194.82c-10.08,18.76 -22.22,32.94 -36.4,42.55 -14.18,9.61 -29.59,14.42 -46.24,14.42 -12.89,0 -26.25,-2.81 -40.09,-8.44l13.71 -43.26c9.85,3.06 18.05,4.58 24.62,4.58 7.03,0 13.36,-1.7 18.99,-5.1 5.63,-3.4 10.79,-8.73 15.47,-16l2.11 -2.81 -97.05 -180.76 60.83 0 65.41 132.23 67.51 -132.23 55.92 0zm140.66 250.38l0 0c-25.09,0 -47.76,-5.45 -68.04,-16.35 -20.29,-10.9 -36.23,-26.02 -47.83,-45.36 -11.6,-19.34 -17.4,-41.21 -17.4,-65.58 0,-24.39 5.8,-46.25 17.4,-65.58 11.6,-19.35 27.54,-34.47 47.83,-45.37 20.28,-10.9 43.07,-16.36 68.39,-16.36 21.34,0 40.62,3.76 57.85,11.26 17.23,7.5 31.7,18.29 43.43,32.35l-36.58 33.76c-16.64,-19.22 -37.27,-28.84 -61.88,-28.84 -15.24,0 -28.84,3.35 -40.8,10.03 -11.95,6.68 -21.27,16 -27.95,27.95 -6.69,11.96 -10.03,25.56 -10.03,40.8 0,15.23 3.34,28.83 10.03,40.79 6.68,11.95 16,21.27 27.95,27.95 11.96,6.69 25.56,10.03 40.8,10.03 24.61,0 45.24,-9.73 61.88,-29.19l36.58 33.76c-11.73,14.3 -26.26,25.2 -43.61,32.7 -17.35,7.5 -36.69,11.25 -58.02,11.25zm362.91 -4.22l0 0 -0.36 -147.34 -72.43 121.32 -25.33 0 -72.44 -118.5 0 144.52 -53.45 0 0 -246.16 47.12 0 92.13 152.97 90.73 -152.97 47.12 0 0.36 246.16 -53.45 0zm232.08 4.22l0 0c-25.55,0 -48.59,-5.51 -69.09,-16.53 -20.52,-11.01 -36.58,-26.19 -48.18,-45.53 -11.61,-19.34 -17.41,-41.09 -17.41,-65.23 0,-24.15 5.8,-45.9 17.41,-65.24 11.6,-19.33 27.66,-34.52 48.18,-45.54 20.5,-11.01 43.54,-16.53 69.09,-16.53 25.56,0 48.53,5.52 68.92,16.53 20.4,11.02 36.46,26.21 48.18,45.54 11.72,19.34 17.58,41.09 17.58,65.24 0,24.14 -5.86,45.89 -17.58,65.23 -11.72,19.34 -27.78,34.52 -48.18,45.53 -20.39,11.02 -43.36,16.53 -68.92,16.53zm0 -48.52l0 0c14.54,0 27.67,-3.34 39.39,-10.03 11.72,-6.68 20.92,-16 27.6,-27.95 6.69,-11.96 10.02,-25.56 10.02,-40.79 0,-15.24 -3.33,-28.84 -10.02,-40.8 -6.68,-11.95 -15.88,-21.27 -27.6,-27.95 -11.72,-6.68 -24.85,-10.03 -39.39,-10.03 -14.53,0 -27.66,3.35 -39.38,10.03 -11.72,6.68 -20.93,16 -27.6,27.95 -6.69,11.96 -10.03,25.56 -10.03,40.8 0,15.23 3.34,28.83 10.03,40.79 6.67,11.95 15.88,21.27 27.6,27.95 11.72,6.69 24.85,10.03 39.38,10.03zm425.5 -2.11l0 0 0 97.41 -52.74 0 0 -51 -173.72 0 0 51 -52.74 0 0.35 -97.41 9.84 0c14.77,-0.47 25.2,-11.25 31.3,-32.36 6.09,-21.09 9.85,-51.22 11.25,-90.37l2.82 -77.02 189.18 0 0 199.75 34.46 0zm-176.18 -117.46l0 0c-1.16,29.31 -3.63,53.87 -7.38,73.67 -3.75,19.82 -9.49,34.4 -17.23,43.79l110.07 0 0 -153.33 -84.4 0 -1.06 35.87zm436.76 -82.29l0 0 -104.79 194.82c-10.09,18.76 -22.22,32.94 -36.4,42.55 -14.19,9.61 -29.59,14.42 -46.25,14.42 -12.89,0 -26.25,-2.81 -40.08,-8.44l13.71 -43.26c9.85,3.06 18.05,4.58 24.62,4.58 7.03,0 13.36,-1.7 18.98,-5.1 5.64,-3.4 10.79,-8.73 15.48,-16l2.11 -2.81 -97.05 -180.76 60.83 0 65.41 132.23 67.51 -132.23 55.92 0zm242.64 0l0 0 -189.19 0 -3.52 99.88c-1.4,34.22 -4.8,59.37 -10.19,75.43 -5.4,16.05 -14.89,24.08 -28.49,24.08 -3.74,0 -7.14,-0.46 -10.2,-1.41l-3.51 48.18c11.02,2.58 20.4,3.88 28.13,3.88 18.76,0 33.34,-5.81 43.78,-17.41 10.44,-11.61 17.88,-28.25 22.33,-49.94 4.46,-21.69 7.27,-49.99 8.44,-84.92l1.76 -51.35 84.4 0 0 199.74 56.26 0 0 -246.16zm180.75 80.89l0 0c30.01,0 53.05,6.68 69.1,20.04 16.06,13.37 24.09,33.17 24.09,59.43 0,27.89 -8.85,49.18 -26.55,63.83 -17.7,14.65 -42.61,21.97 -74.73,21.97l-111.12 0 0 -246.16 56.61 0 0 80.89 62.6 0zm-11.26 123.08l0 0c14.77,0 26.32,-3.63 34.65,-10.91 8.32,-7.26 12.47,-17.81 12.47,-31.64 0,-25.55 -15.7,-38.33 -47.12,-38.33l-51.34 0 0 80.88 51.34 0z"/>
    <path class="fil0" d="M2082.97 116.15l0 92.77 -21.33 0 0 -75.27 -41.88 0 0 75.27 -21.34 0 0 -92.77 84.55 0zm-54.6 233.95l0 0c-7.33,0 -14.43,-1 -21.27,-2.98 -6.85,-1.99 -12.34,-4.57 -16.5,-7.75l7.29 -16.18c3.98,2.92 8.71,5.27 14.18,7.03 5.47,1.77 10.95,2.65 16.44,2.65 6.09,0 10.59,-0.9 13.51,-2.71 2.92,-1.82 4.37,-4.22 4.37,-7.23 0,-2.21 -0.85,-4.04 -2.58,-5.5 -1.73,-1.45 -3.94,-2.63 -6.63,-3.51 -2.69,-0.88 -6.34,-1.85 -10.93,-2.91 -7.07,-1.69 -12.85,-3.36 -17.36,-5.04 -4.5,-1.68 -8.37,-4.37 -11.6,-8.08 -3.22,-3.71 -4.84,-8.66 -4.84,-14.85 0,-5.39 1.47,-10.26 4.38,-14.64 2.92,-4.37 7.31,-7.84 13.19,-10.4 5.87,-2.57 13.05,-3.85 21.54,-3.85 5.91,0 11.69,0.71 17.35,2.13 5.66,1.41 10.6,3.45 14.85,6.1l-6.64 16.29c-8.56,-4.86 -17.13,-7.28 -25.71,-7.28 -6,0 -10.44,0.96 -13.31,2.91 -2.87,1.94 -4.31,4.5 -4.31,7.69 0,3.17 1.66,5.53 4.98,7.08 3.3,1.55 8.37,3.08 15.16,4.58 7.08,1.67 12.86,3.35 17.37,5.03 4.5,1.68 8.37,4.33 11.6,7.96 3.22,3.61 4.83,8.52 4.83,14.7 0,5.3 -1.48,10.14 -4.44,14.51 -2.96,4.38 -7.4,7.84 -13.32,10.4 -5.92,2.57 -13.11,3.85 -21.6,3.85zm75.55 -77.13l0 0 0 24.52 42.93 0 0 17.23 -42.93 0 0 33.79 -21.48 0 0 -92.76 70.11 0 0 17.22 -48.63 0zm103.36 -17.22l0 0c8.21,0 15.34,1.36 21.4,4.1 6.06,2.74 10.71,6.63 13.98,11.67 3.27,5.03 4.9,10.99 4.9,17.88 0,6.81 -1.63,12.75 -4.9,17.83 -3.27,5.07 -7.92,8.97 -13.98,11.66 -6.06,2.7 -13.19,4.04 -21.4,4.04l-18.69 0 0 25.58 -21.47 0 0 -92.76 40.16 0zm-1.19 49.69l0 0c6.44,0 11.35,-1.39 14.71,-4.18 3.36,-2.78 5.03,-6.74 5.03,-11.86 0,-5.21 -1.67,-9.21 -5.03,-11.99 -3.36,-2.78 -8.27,-4.17 -14.71,-4.17l-17.5 0 0 32.2 17.5 0zm-59.91 -189.29l0 0c8.22,0 15.36,1.37 21.41,4.11 6.05,2.74 10.71,6.63 13.98,11.66 3.27,5.04 4.9,11 4.9,17.89 0,6.8 -1.63,12.74 -4.9,17.83 -3.27,5.07 -7.93,8.96 -13.98,11.66 -6.05,2.69 -13.19,4.04 -21.41,4.04l-18.68 0 0 25.58 -21.47 0 0 -92.77 40.15 0zm-1.19 49.7l0 0c6.45,0 11.35,-1.4 14.71,-4.18 3.36,-2.78 5.03,-6.74 5.03,-11.86 0,-5.21 -1.67,-9.21 -5.03,-11.99 -3.36,-2.78 -8.26,-4.17 -14.71,-4.17l-17.49 0 0 32.2 17.49 0zm101.25 44.66l0 0c-9.63,0 -18.3,-2.08 -26.04,-6.23 -7.73,-4.16 -13.78,-9.88 -18.15,-17.16 -4.37,-7.29 -6.56,-15.49 -6.56,-24.58 0,-9.11 2.19,-17.3 6.56,-24.59 4.37,-7.29 10.42,-13 18.15,-17.16 7.74,-4.15 16.41,-6.23 26.04,-6.23 9.63,0 18.29,2.08 25.98,6.23 7.68,4.16 13.73,9.87 18.15,17.16 4.42,7.29 6.63,15.48 6.63,24.59 0,9.09 -2.21,17.29 -6.63,24.58 -4.42,7.28 -10.47,13 -18.15,17.16 -7.69,4.15 -16.35,6.23 -25.98,6.23zm0 -18.29l0 0c5.48,0 10.43,-1.26 14.85,-3.78 4.42,-2.52 7.88,-6.03 10.4,-10.53 2.52,-4.51 3.77,-9.63 3.77,-15.37 0,-5.75 -1.25,-10.88 -3.77,-15.38 -2.52,-4.5 -5.98,-8.01 -10.4,-10.53 -4.42,-2.52 -9.37,-3.78 -14.85,-3.78 -5.48,0 -10.42,1.26 -14.85,3.78 -4.4,2.52 -7.87,6.03 -10.39,10.53 -2.52,4.5 -3.78,9.63 -3.78,15.38 0,5.74 1.26,10.86 3.78,15.37 2.52,4.5 5.99,8.01 10.39,10.53 4.43,2.52 9.37,3.78 14.85,3.78zm67.32 -76.07l0 0 21.34 0 0 60.43 44.26 -60.43 20.14 0 0 92.77 -21.2 0 0 -60.3 -44.26 60.3 -20.28 0 0 -92.77zm161.55 44.39l0 0c5.38,1.86 9.6,4.76 12.65,8.69 3.05,3.93 4.57,8.5 4.57,13.71 0,5.66 -1.85,10.56 -5.56,14.71 -3.71,4.16 -8.73,7.33 -15.05,9.54 -6.31,2.21 -13.23,3.32 -20.74,3.32 -6.36,0 -12.69,-0.8 -19.01,-2.39 -6.32,-1.59 -12.31,-4.02 -17.95,-7.29l6.62 -15.37c4.06,2.48 8.54,4.35 13.45,5.63 4.9,1.28 9.7,1.92 14.38,1.92 6.36,0 11.64,-1.15 15.83,-3.44 4.2,-2.3 6.3,-5.52 6.3,-9.68 0,-3.44 -1.44,-6.05 -4.31,-7.81 -2.87,-1.77 -6.78,-2.66 -11.73,-2.66l-22.65 0 0 -16.16 21.06 0c4.33,0 7.71,-0.88 10.14,-2.65 2.43,-1.77 3.64,-4.2 3.64,-7.29 0,-3.62 -1.74,-6.45 -5.23,-8.48 -3.49,-2.04 -7.97,-3.05 -13.45,-3.05 -4.06,0 -8.26,0.55 -12.59,1.65 -4.32,1.11 -8.44,2.76 -12.32,4.97l-6.5 -16.69c9.81,-5.03 20.41,-7.55 31.81,-7.55 7.24,0 13.91,1.05 20.01,3.17 6.09,2.13 10.95,5.22 14.58,9.28 3.62,4.07 5.43,8.79 5.43,14.18 0,4.42 -1.19,8.35 -3.58,11.79 -2.39,3.45 -5.65,6.1 -9.8,7.95zm98.46 0l0 0c5.65,1.68 9.98,4.42 12.98,8.23 3,3.79 4.51,8.47 4.51,14.04 0,8.22 -3.11,14.62 -9.34,19.21 -6.24,4.6 -15.13,6.9 -26.71,6.9l-45.72 0 0 -92.77 43.2 0c10.78,0 19.18,2.08 25.18,6.23 6.01,4.15 9.02,10.07 9.02,17.76 0,4.59 -1.15,8.64 -3.45,12.12 -2.3,3.49 -5.53,6.25 -9.67,8.28zm-42.94 -5.95l0 0 20.01 0c4.68,0 8.21,-0.95 10.6,-2.86 2.39,-1.9 3.58,-4.7 3.58,-8.41 0,-3.62 -1.21,-6.4 -3.65,-8.35 -2.43,-1.94 -5.94,-2.92 -10.53,-2.92l-20.01 0 0 22.54zm23.59 38.42l0 0c10.07,0 15.1,-3.97 15.1,-11.92 0,-7.69 -5.03,-11.54 -15.1,-11.54l-23.59 0 0 23.46 23.59 0zm98.07 17.5l0 0c-9.63,0 -18.31,-2.08 -26.05,-6.23 -7.72,-4.16 -13.77,-9.88 -18.15,-17.16 -4.37,-7.29 -6.56,-15.49 -6.56,-24.58 0,-9.11 2.19,-17.3 6.56,-24.59 4.38,-7.29 10.43,-13 18.15,-17.16 7.74,-4.15 16.42,-6.23 26.05,-6.23 9.62,0 18.29,2.08 25.97,6.23 7.68,4.16 13.74,9.87 18.16,17.16 4.41,7.29 6.62,15.48 6.62,24.59 0,9.09 -2.21,17.29 -6.62,24.58 -4.42,7.28 -10.48,13 -18.16,17.16 -7.68,4.15 -16.35,6.23 -25.97,6.23zm0 -18.29l0 0c5.47,0 10.42,-1.26 14.84,-3.78 4.42,-2.52 7.88,-6.03 10.4,-10.53 2.52,-4.51 3.78,-9.63 3.78,-15.37 0,-5.75 -1.26,-10.88 -3.78,-15.38 -2.52,-4.5 -5.98,-8.01 -10.4,-10.53 -4.42,-2.52 -9.37,-3.78 -14.84,-3.78 -5.48,0 -10.43,1.26 -14.85,3.78 -4.41,2.52 -7.88,6.03 -10.4,10.53 -2.52,4.5 -3.78,9.63 -3.78,15.38 0,5.74 1.26,10.86 3.78,15.37 2.52,4.5 5.99,8.01 10.4,10.53 4.42,2.52 9.37,3.78 14.85,3.78zm160.34 -0.8l0 0 0 36.72 -19.87 0 0 -19.22 -65.47 0 0 19.22 -19.88 0 0.13 -36.72 3.72 0c5.56,-0.18 9.5,-4.24 11.79,-12.19 2.3,-7.95 3.71,-19.3 4.24,-34.06l1.06 -29.02 71.3 0 0 75.27 12.98 0zm-66.39 -44.26l0 0c-0.44,11.04 -1.37,20.3 -2.78,27.76 -1.41,7.47 -3.58,12.97 -6.49,16.5l41.47 0 0 -57.77 -31.8 0 -0.4 13.51zm124.71 63.35l0 0c-9.46,0 -18,-2.06 -25.65,-6.17 -7.64,-4.1 -13.64,-9.8 -18.02,-17.09 -4.37,-7.29 -6.56,-15.53 -6.56,-24.71 0,-9.2 2.19,-17.43 6.56,-24.72 4.38,-7.29 10.38,-12.99 18.02,-17.09 7.65,-4.11 16.24,-6.17 25.78,-6.17 8.04,0 15.31,1.41 21.8,4.24 6.49,2.83 11.95,6.89 16.37,12.19l-13.79 12.72c-6.27,-7.24 -14.04,-10.86 -23.32,-10.86 -5.74,0 -10.86,1.26 -15.37,3.78 -4.5,2.52 -8.02,6.03 -10.54,10.53 -2.52,4.5 -3.78,9.63 -3.78,15.38 0,5.74 1.26,10.86 3.78,15.37 2.52,4.5 6.04,8.01 10.54,10.53 4.51,2.52 9.63,3.78 15.37,3.78 9.28,0 17.05,-3.66 23.32,-11l13.79 12.72c-4.42,5.39 -9.9,9.5 -16.44,12.33 -6.54,2.82 -13.82,4.24 -21.86,4.24zm122.31 -76.86l0 0 -29.68 0 0 75.27 -21.2 0 0 -75.27 -29.56 0 0 -17.5 80.44 0 0 17.5zm77.8 26.89l0 0c5.66,1.68 9.98,4.42 12.99,8.23 3,3.79 4.51,8.47 4.51,14.04 0,8.22 -3.12,14.62 -9.35,19.21 -6.23,4.6 -15.12,6.9 -26.7,6.9l-45.73 0 0 -92.77 43.21 0c10.78,0 19.17,2.08 25.18,6.23 6.01,4.15 9.01,10.07 9.01,17.76 0,4.59 -1.15,8.64 -3.44,12.12 -2.31,3.49 -5.53,6.25 -9.68,8.28zm-42.94 -5.95l0 0 20.01 0c4.69,0 8.22,-0.95 10.61,-2.86 2.39,-1.9 3.57,-4.7 3.57,-8.41 0,-3.62 -1.21,-6.4 -3.64,-8.35 -2.43,-1.94 -5.95,-2.92 -10.54,-2.92l-20.01 0 0 22.54zm23.59 38.42l0 0c10.07,0 15.11,-3.97 15.11,-11.92 0,-7.69 -5.04,-11.54 -15.11,-11.54l-23.59 0 0 23.46 23.59 0zm98.07 17.5l0 0c-9.63,0 -18.31,-2.08 -26.04,-6.23 -7.73,-4.16 -13.78,-9.88 -18.15,-17.16 -4.38,-7.29 -6.56,-15.49 -6.56,-24.58 0,-9.11 2.18,-17.3 6.56,-24.59 4.37,-7.29 10.42,-13 18.15,-17.16 7.73,-4.15 16.41,-6.23 26.04,-6.23 9.63,0 18.29,2.08 25.98,6.23 7.68,4.16 13.73,9.87 18.15,17.16 4.42,7.29 6.63,15.48 6.63,24.59 0,9.09 -2.21,17.29 -6.63,24.58 -4.42,7.28 -10.47,13 -18.15,17.16 -7.69,4.15 -16.35,6.23 -25.98,6.23zm0 -18.29l0 0c5.48,0 10.42,-1.26 14.84,-3.78 4.42,-2.52 7.89,-6.03 10.4,-10.53 2.53,-4.51 3.79,-9.63 3.79,-15.37 0,-5.75 -1.26,-10.88 -3.79,-15.38 -2.51,-4.5 -5.98,-8.01 -10.4,-10.53 -4.42,-2.52 -9.36,-3.78 -14.84,-3.78 -5.48,0 -10.42,1.26 -14.84,3.78 -4.42,2.52 -7.89,6.03 -10.41,10.53 -2.52,4.5 -3.77,9.63 -3.77,15.38 0,5.74 1.25,10.86 3.77,15.37 2.52,4.5 5.99,8.01 10.41,10.53 4.42,2.52 9.36,3.78 14.84,3.78zm-763.2 156.29l0 0 -0.14 -55.53 -27.29 45.72 -9.54 0 -27.3 -44.66 0 54.47 -20.15 0 0 -92.76 17.76 0 34.72 57.64 34.19 -57.64 17.76 0 0.13 92.76 -20.14 0zm87.46 1.59l0 0c-9.63,0 -18.3,-2.08 -26.04,-6.23 -7.73,-4.15 -13.78,-9.87 -18.15,-17.16 -4.38,-7.29 -6.56,-15.48 -6.56,-24.58 0,-9.1 2.18,-17.3 6.56,-24.59 4.37,-7.28 10.42,-13 18.15,-17.16 7.74,-4.15 16.41,-6.23 26.04,-6.23 9.63,0 18.29,2.08 25.98,6.23 7.68,4.16 13.73,9.88 18.15,17.16 4.42,7.29 6.63,15.49 6.63,24.59 0,9.1 -2.21,17.29 -6.63,24.58 -4.42,7.29 -10.47,13.01 -18.15,17.16 -7.69,4.15 -16.35,6.23 -25.98,6.23zm0 -18.29l0 0c5.48,0 10.42,-1.26 14.84,-3.78 4.42,-2.52 7.89,-6.03 10.4,-10.53 2.52,-4.5 3.78,-9.62 3.78,-15.37 0,-5.75 -1.26,-10.87 -3.78,-15.38 -2.51,-4.5 -5.98,-8.01 -10.4,-10.53 -4.42,-2.52 -9.36,-3.78 -14.84,-3.78 -5.48,0 -10.42,1.26 -14.84,3.78 -4.42,2.52 -7.89,6.03 -10.41,10.53 -2.51,4.51 -3.77,9.63 -3.77,15.38 0,5.75 1.26,10.87 3.77,15.37 2.52,4.5 5.99,8.01 10.41,10.53 4.42,2.52 9.36,3.78 14.84,3.78zm160.35 -0.8l0 0 0 36.72 -19.88 0 0 -19.22 -65.46 0 0 19.22 -19.88 0 0.13 -36.72 3.72 0c5.56,-0.17 9.49,-4.24 11.79,-12.19 2.29,-7.95 3.71,-19.3 4.24,-34.05l1.06 -29.02 71.3 0 0 75.26 12.98 0zm-66.39 -44.26l0 0c-0.44,11.05 -1.37,20.3 -2.79,27.77 -1.41,7.46 -3.57,12.96 -6.49,16.49l41.48 0 0 -57.77 -31.8 0 -0.4 13.51zm164.59 -31l0 0 -39.49 73.41c-3.79,7.07 -8.37,12.41 -13.71,16.04 -5.35,3.62 -11.16,5.43 -17.43,5.43 -4.86,0 -9.9,-1.06 -15.11,-3.18l5.17 -16.3c3.71,1.15 6.8,1.72 9.27,1.72 2.65,0 5.04,-0.64 7.16,-1.92 2.13,-1.28 4.06,-3.29 5.83,-6.03l0.8 -1.06 -36.58 -68.11 22.93 0 24.64 49.82 25.45 -49.82 21.07 0zm91.45 0l0 0 -71.3 0 -1.33 37.63c-0.53,12.9 -1.81,22.37 -3.84,28.42 -2.03,6.05 -5.61,9.08 -10.74,9.08 -1.41,0 -2.69,-0.17 -3.83,-0.53l-1.33 18.16c4.14,0.97 7.69,1.46 10.6,1.46 7.07,0 12.56,-2.19 16.5,-6.56 3.93,-4.38 6.74,-10.65 8.41,-18.82 1.68,-8.17 2.75,-18.84 3.18,-32l0.67 -19.35 31.8 0 0 75.27 21.21 0 0 -92.76zm95.01 75.54l0 0 0 17.22 -71.82 0 0 -92.76 70.1 0 0 17.22 -48.77 0 0 20.14 43.07 0 0 16.7 -43.07 0 0 21.48 50.49 0zm17.36 -75.54l0 0 21.34 0 0 60.42 44.26 -60.42 20.15 0 0 92.76 -21.21 0 0 -60.3 -44.26 60.3 -20.28 0 0 -92.76zm42.8 -5.97l0 0c-16.96,0 -25.53,-6.76 -25.7,-20.28l14.71 0c0.18,6.45 3.84,9.68 10.99,9.68 3.54,0 6.24,-0.82 8.1,-2.45 1.85,-1.64 2.82,-4.05 2.91,-7.23l14.71 0c-0.09,6.63 -2.25,11.67 -6.49,15.11 -4.25,3.45 -10.65,5.17 -19.23,5.17z"/>
    <path class="fil0" d="M436.05 355.46l-173.59 -300.7 21.88 12.63 557.91 322.12 -406.2 -34.05zm-210.19 440.4l0 0 451.7 0 225.86 -391.18 -225.86 -391.2 -451.7 0 -225.87 391.19 225.87 391.19zm31.42 -38.27l0 0 178.83 -379.91 418.43 35.07 -597.26 344.84zm159.62 -391.06l0 0 -173.59 368.78 0 -669.48 173.59 300.7z"/>
   </g>
  </g>
 </g>
</svg>
